<?xml version="1.0" encoding="utf-8"?>
<!-- Generator: Adobe Illustrator 23.0.2, SVG Export Plug-In . SVG Version: 6.00 Build 0)  -->
<svg version="1.1" id="F_x2F_L" xmlns="http://www.w3.org/2000/svg" xmlns:xlink="http://www.w3.org/1999/xlink" x="0px" y="0px"
	 viewBox="0 0 500 500" style="enable-background:new 0 0 500 500;" xml:space="preserve">
<g id="Paths">
	<polygon points="133.2,401.7 173.2,412.4 173.2,196.3 231.1,196.3 239.1,166.3 173.2,166.3 173.2,76.3 263.2,76.3 271.3,46.3 
		173.2,46.3 173.2,26.3 133.2,26.3 133.2,46.3 113.2,46.3 113.2,76.3 133.2,76.3 133.2,166.3 113.2,166.3 113.2,196.3 133.2,196.3 	
		"/>
	<polygon points="278.7,443.7 377.1,76.3 346.1,76.3 239.6,473.7 434.3,473.7 442.3,443.7 	"/>
	<polygon points="416.2,46.3 408.2,76.3 428.9,76.3 442.3,26.3 307.7,26.3 307.7,26.3 194.4,449.2 73,416.6 73,416.6 73,416.6 
		57.7,473.7 78.4,473.7 87.1,441.1 208.5,473.7 323,46.3 	"/>
</g>
</svg>
